name rise49.25peak52.1432fall72.8391.mot
datacolumns 19
datarows 18
range 0.61501100000000 0.64332600000000
endheader
time	ground_force1_vx	ground_force1_vy	ground_force1_vz	ground_force1_px	ground_force1_py	ground_force1_pz	ground_force2_vx	ground_force2_vy	ground_force2_vz	ground_force2_px	ground_force2_py	ground_force2_pz	ground_torque1_x	ground_torque1_y	ground_torque1_z	ground_torque2_x	ground_torque2_y	ground_torque2_z	
0.61501100000000	76.05044200000000	783.59702300000004	55.09620100000000	0.36177400000000	0.00000000000000	0.11178700000000	0.00000000000000	0.00000000000000	0.00000000000000	0.00000000000000	0.00000000000000	0.00000000000000	0.00000000000000	21.70913500000000	0.00000000000000	0.00000000000000	0.00000000000000	0.00000000000000	
0.61666800000000	75.55085699999999	786.72450500000002	55.29489800000000	0.36122600000000	0.00000000000000	0.11169600000000	0.00000000000000	0.00000000000000	0.00000000000000	0.00000000000000	0.00000000000000	0.00000000000000	0.00000000000000	21.85406700000000	0.00000000000000	0.00000000000000	0.00000000000000	0.00000000000000	
0.61832900000000	75.03706300000000	789.67329299999994	55.48732900000000	0.36070000000000	0.00000000000000	0.11160400000000	0.00000000000000	0.00000000000000	0.00000000000000	0.00000000000000	0.00000000000000	0.00000000000000	0.00000000000000	21.99879400000000	0.00000000000000	0.00000000000000	0.00000000000000	0.00000000000000	
0.62000000000000	74.50974100000001	792.44178699999998	55.67326400000000	0.36019500000000	0.00000000000000	0.11151200000000	0.00000000000000	0.00000000000000	0.00000000000000	0.00000000000000	0.00000000000000	0.00000000000000	0.00000000000000	22.14311300000000	0.00000000000000	0.00000000000000	0.00000000000000	0.00000000000000	
0.62166200000000	73.96954700000001	795.02865399999996	55.85241900000000	0.35971100000000	0.00000000000000	0.11141900000000	0.00000000000000	0.00000000000000	0.00000000000000	0.00000000000000	0.00000000000000	0.00000000000000	0.00000000000000	22.28678200000000	0.00000000000000	0.00000000000000	0.00000000000000	0.00000000000000	
0.62333000000000	73.41711200000000	797.43283899999994	56.02446200000000	0.35924700000000	0.00000000000000	0.11132600000000	0.00000000000000	0.00000000000000	0.00000000000000	0.00000000000000	0.00000000000000	0.00000000000000	0.00000000000000	22.42951800000000	0.00000000000000	0.00000000000000	0.00000000000000	0.00000000000000	
0.62500300000000	72.85304300000000	799.65357500000005	56.18901500000000	0.35880200000000	0.00000000000000	0.11123200000000	0.00000000000000	0.00000000000000	0.00000000000000	0.00000000000000	0.00000000000000	0.00000000000000	0.00000000000000	22.57100900000000	0.00000000000000	0.00000000000000	0.00000000000000	0.00000000000000	
0.62666600000000	72.27792700000001	801.69039099999998	56.34566500000000	0.35837400000000	0.00000000000000	0.11113700000000	0.00000000000000	0.00000000000000	0.00000000000000	0.00000000000000	0.00000000000000	0.00000000000000	0.00000000000000	22.71090800000000	0.00000000000000	0.00000000000000	0.00000000000000	0.00000000000000	
0.62833100000000	71.69233199999999	803.54312000000004	56.49396200000000	0.35796300000000	0.00000000000000	0.11104200000000	0.00000000000000	0.00000000000000	0.00000000000000	0.00000000000000	0.00000000000000	0.00000000000000	0.00000000000000	22.84884300000000	0.00000000000000	0.00000000000000	0.00000000000000	0.00000000000000	
0.62999500000000	71.09680500000000	805.21190200000001	56.63343200000000	0.35756600000000	0.00000000000000	0.11094700000000	0.00000000000000	0.00000000000000	0.00000000000000	0.00000000000000	0.00000000000000	0.00000000000000	0.00000000000000	22.98441600000000	0.00000000000000	0.00000000000000	0.00000000000000	0.00000000000000	
0.63166500000000	70.49187999999999	806.69719399999997	56.76357600000000	0.35718400000000	0.00000000000000	0.11085100000000	0.00000000000000	0.00000000000000	0.00000000000000	0.00000000000000	0.00000000000000	0.00000000000000	0.00000000000000	23.11721000000000	0.00000000000000	0.00000000000000	0.00000000000000	0.00000000000000	
0.63332600000000	69.87807300000000	807.99977000000001	56.88388200000000	0.35681400000000	0.00000000000000	0.11075400000000	0.00000000000000	0.00000000000000	0.00000000000000	0.00000000000000	0.00000000000000	0.00000000000000	0.00000000000000	23.24679100000000	0.00000000000000	0.00000000000000	0.00000000000000	0.00000000000000	
0.63499300000000	69.25588900000000	809.12072400000000	56.99382600000000	0.35645500000000	0.00000000000000	0.11065700000000	0.00000000000000	0.00000000000000	0.00000000000000	0.00000000000000	0.00000000000000	0.00000000000000	0.00000000000000	23.37271200000000	0.00000000000000	0.00000000000000	0.00000000000000	0.00000000000000	
0.63666200000000	68.62582200000000	810.06147299999998	57.09288200000000	0.35610600000000	0.00000000000000	0.11055900000000	0.00000000000000	0.00000000000000	0.00000000000000	0.00000000000000	0.00000000000000	0.00000000000000	0.00000000000000	23.49451600000000	0.00000000000000	0.00000000000000	0.00000000000000	0.00000000000000	
0.63833300000000	67.98835400000000	810.82375400000001	57.18052500000000	0.35576400000000	0.00000000000000	0.11046100000000	0.00000000000000	0.00000000000000	0.00000000000000	0.00000000000000	0.00000000000000	0.00000000000000	0.00000000000000	23.61174400000000	0.00000000000000	0.00000000000000	0.00000000000000	0.00000000000000	
0.63999600000000	67.34396200000000	811.40962500000001	57.25623700000000	0.35542900000000	0.00000000000000	0.11036200000000	0.00000000000000	0.00000000000000	0.00000000000000	0.00000000000000	0.00000000000000	0.00000000000000	0.00000000000000	23.72393100000000	0.00000000000000	0.00000000000000	0.00000000000000	0.00000000000000	
0.64166200000000	66.69311700000000	811.82146100000000	57.31951500000000	0.35509800000000	0.00000000000000	0.11026200000000	0.00000000000000	0.00000000000000	0.00000000000000	0.00000000000000	0.00000000000000	0.00000000000000	0.00000000000000	23.83061800000000	0.00000000000000	0.00000000000000	0.00000000000000	0.00000000000000	
0.64332600000000	66.03628200000000	812.06194900000003	57.36987500000000	0.35477100000000	0.00000000000000	0.11016200000000	0.00000000000000	0.00000000000000	0.00000000000000	0.00000000000000	0.00000000000000	0.00000000000000	0.00000000000000	23.93134900000000	0.00000000000000	0.00000000000000	0.00000000000000	0.00000000000000	
